<svg width="64" height="61" viewBox="0 0 64 61" fill="none" xmlns="http://www.w3.org/2000/svg">
<path d="M64 30.5C64 47.3447 50.3849 61 33.5898 61C16.7947 61 3.17962 47.3447 3.17962 30.5C3.17962 13.6553 16.7947 0 33.5898 0C50.3849 0 64 13.6553 64 30.5Z" fill="#FA9ACD"/>
<path d="M60.8204 30.5C60.8204 47.3447 47.2053 61 30.4102 61C13.6151 61 0 47.3447 0 30.5C0 13.6553 13.6151 0 30.4102 0C47.2053 0 60.8204 13.6553 60.8204 30.5Z" fill="#FFAAD7"/>
<path d="M59.5159 57.7701C59.5159 59.2378 48.5654 60.4276 35.0573 60.4276C21.5492 60.4276 10.5987 59.2378 10.5987 57.7701C10.5987 56.3024 21.5492 55.1126 35.0573 55.1126C48.5654 55.1126 59.5159 56.3024 59.5159 57.7701Z" fill="black"/>
<path d="M31.017 0C24.9658 0 19.3552 1.94102 14.7171 5.25118L23.9661 11.6166C24.3211 11.8609 24.7306 12.0143 25.1584 12.0629L36.9153 13.3991L24.317 17.7059L38.0239 13.8619L39.5164 15.681C39.5164 15.681 29.4559 19.0345 24.7036 20.4611C19.9516 21.888 19.4522 21.7209 19.4522 21.7209L19.2707 19.3075L21.9078 14.6085C22.0661 14.3267 21.9854 13.9703 21.7213 13.7845L12.3128 7.16222C7.81442 11.1497 4.50495 16.5473 3.01659 22.6992L3.15111 22.7661C6.03373 24.1981 9.08764 24.8944 12.4875 24.8944C18.6691 24.8944 25.1861 22.5363 31.4887 20.2559L32.0964 20.0362L32.1052 20.0332C37.1827 18.2578 42.599 16.5245 48.0829 16.5245C51.5509 16.5245 54.7283 17.2143 57.7254 18.6176C53.4007 7.69331 43.077 0 31.017 0ZM24.3172 5.72206C24.1048 4.76973 23.2148 4.67168 23.2148 4.67168C23.2153 4.67143 24.1048 4.57362 24.3172 3.62129C24.5297 4.57362 25.4191 4.67143 25.4196 4.67168C25.4191 4.67192 24.5297 4.76973 24.3172 5.72206ZM32.9112 9.31951C32.486 7.41486 30.7071 7.21923 30.7061 7.21899C30.7071 7.21874 32.486 7.02287 32.9112 5.11847C33.3363 7.02312 35.115 7.21874 35.1163 7.21899C35.115 7.21899 33.3361 7.41486 32.9112 9.31951ZM13.4812 17.1758C13.1501 15.6926 11.7647 15.54 11.7639 15.54C11.7647 15.5397 13.1501 15.3874 13.4812 13.9039C13.8122 15.3871 15.1976 15.5397 15.1984 15.54C15.1976 15.54 13.8122 15.6923 13.4812 17.1758ZM45.5889 12.002C45.3765 11.0497 44.487 10.9519 44.4863 10.9516C44.4867 10.9514 45.3762 10.8536 45.5889 9.90123C45.8014 10.8536 46.6911 10.9514 46.6916 10.9516C46.6911 10.9519 45.8014 11.0499 45.5889 12.002Z" fill="url(#paint0_linear_187_48)"/>
<path d="M30.9511 6.28608C31.4108 6.28608 31.8668 6.30058 32.3198 6.32639C32.5752 6.03 32.7947 5.63997 32.9111 5.11822C33.042 5.70436 33.3012 6.12756 33.5975 6.43427C37.7856 6.90048 41.6445 8.46008 44.8846 10.8226C45.1505 10.6899 45.4722 10.4254 45.5891 9.90147C45.8016 10.8538 46.6913 10.9516 46.6918 10.9519C46.6918 10.9519 46.1302 11.0155 45.793 11.5188C47.6114 12.9836 49.21 14.7113 50.5315 16.6449C53.0657 16.8976 55.448 17.5508 57.7258 18.6174C53.4012 7.69331 43.0775 0 31.0172 0C24.966 0 19.3554 1.94102 14.7173 5.25118L20.0677 8.93342C23.3272 7.24209 27.0275 6.28608 30.9511 6.28608ZM24.3172 3.62154C24.5296 4.57386 25.4191 4.67167 25.4196 4.67192C25.4191 4.67192 24.5296 4.76998 24.3172 5.7223C24.1047 4.76998 23.2147 4.67192 23.2147 4.67192C23.2147 4.67192 24.1045 4.57361 24.3172 3.62154Z" fill="white"/>
<path d="M12.1084 15.6249C11.9058 15.5559 11.7639 15.5396 11.7639 15.5396C11.7639 15.5396 11.9986 15.5121 12.2966 15.3794C12.6637 14.9115 13.0484 14.458 13.4488 14.0194C13.4595 13.9805 13.472 13.9446 13.4814 13.9038C13.4863 13.9257 13.4934 13.9444 13.4988 13.9658C14.6321 12.7316 15.8933 11.6175 17.262 10.6455L12.313 7.16213C7.81462 11.1496 4.50514 16.5473 3.01678 22.6991L3.15131 22.766C4.67863 23.5249 6.25495 24.0749 7.90455 24.4264C8.69283 21.1808 10.1447 18.1963 12.1084 15.6249Z" fill="white"/>
<path d="M29.7254 58.7469C35.7766 58.7469 41.3872 56.8059 46.0253 53.4957L36.7764 47.1303C36.4213 46.886 36.0118 46.7326 35.584 46.684L23.8271 45.3478L36.4255 41.0411L22.7186 44.885L21.226 43.0659C21.226 43.0659 31.2865 39.7125 36.0388 38.2858C40.7908 36.8589 41.2902 37.0261 41.2902 37.0261L41.4718 39.4394L38.8347 44.1384C38.6764 44.4203 38.757 44.7766 39.0212 44.9624L48.4296 51.5847C52.928 47.5972 56.2375 42.1996 57.7259 36.0477L57.5913 35.9808C54.7087 34.5488 51.6548 33.8525 48.2549 33.8525C42.0733 33.8525 35.5563 36.2106 29.2537 38.491L28.646 38.7108L28.6372 38.7137C23.5598 40.4891 18.1435 42.2224 12.6595 42.2224C9.19151 42.2224 6.01411 41.5326 3.01705 40.1293C7.34172 51.0536 17.6654 58.7469 29.7254 58.7469ZM36.4252 53.0249C36.6377 53.9772 37.5277 54.0753 37.5277 54.0753C37.5272 54.0755 36.6377 54.1733 36.4252 55.1256C36.2128 54.1733 35.3233 54.0755 35.3228 54.0753C35.3233 54.075 36.2128 53.9772 36.4252 53.0249ZM27.8313 49.4274C28.2564 51.3321 30.0354 51.5277 30.0364 51.5279C30.0354 51.5282 28.2564 51.7241 27.8313 53.6285C27.4061 51.7238 25.6274 51.5282 25.6262 51.5279C25.6274 51.5279 27.4064 51.3321 27.8313 49.4274ZM47.2613 41.5712C47.5923 43.0543 48.9778 43.207 48.9785 43.207C48.9778 43.2072 47.5923 43.3596 47.2613 44.843C46.9302 43.3598 45.5448 43.2072 45.5441 43.207C45.5448 43.207 46.9302 43.0546 47.2613 41.5712ZM15.1535 46.7449C15.366 47.6973 16.2554 47.7951 16.2562 47.7953C16.2557 47.7956 15.3662 47.8934 15.1535 48.8457C14.9411 47.8934 14.0513 47.7956 14.0508 47.7953C14.0513 47.7951 14.9411 47.697 15.1535 46.7449Z" fill="url(#paint1_linear_187_48)"/>
<path d="M29.7914 52.4608C29.3317 52.4608 28.8757 52.4463 28.4226 52.4205C28.1673 52.7169 27.9477 53.107 27.8313 53.6287C27.7005 53.0426 27.4412 52.6194 27.145 52.3127C22.9568 51.8464 19.0979 50.2868 15.8578 47.9243C15.5919 48.0571 15.2702 48.3215 15.1533 48.8455C14.9409 47.8931 14.0511 47.7953 14.0507 47.7951C14.0507 47.7951 14.6123 47.7314 14.9495 47.2281C13.131 45.7634 11.5324 44.0357 10.2109 42.102C7.67674 41.8494 5.29449 41.1961 3.01662 40.1295C7.34128 51.0536 17.665 58.7469 29.7252 58.7469C35.7764 58.7469 41.387 56.8059 46.0251 53.4957L40.6747 49.8135C37.4152 51.5048 33.7149 52.4608 29.7914 52.4608ZM36.4253 55.1254C36.2128 54.1731 35.3233 54.0753 35.3229 54.075C35.3233 54.075 36.2128 53.9769 36.4253 53.0246C36.6377 53.9769 37.5277 54.075 37.5277 54.075C37.5277 54.075 36.638 54.1733 36.4253 55.1254Z" fill="white"/>
<path d="M48.634 43.122C48.8367 43.1911 48.9785 43.2073 48.9785 43.2073C48.9785 43.2073 48.7438 43.2348 48.4458 43.3675C48.0788 43.8355 47.6941 44.2889 47.2937 44.7276C47.2829 44.7664 47.2704 44.8023 47.2611 44.8431C47.2562 44.8212 47.2491 44.8025 47.2437 44.7811C46.1104 46.0154 44.8492 47.1294 43.4804 48.1014L48.4294 51.5848C52.9278 47.5973 56.2373 42.1997 57.7257 36.0478L57.5911 35.9809C56.0638 35.222 54.4875 34.672 52.8379 34.3206C52.0496 37.5661 50.5978 40.5506 48.634 43.122Z" fill="white"/>
<path d="M10.7775 40.2223C9.96236 40.3953 9.31873 40.4587 8.84664 40.4124C8.37455 40.3662 8.02405 40.2331 7.79516 40.0133C7.57792 39.7909 7.42774 39.5116 7.34464 39.1754C7.21718 38.6289 7.30034 38.1292 7.59414 37.6764C7.89959 37.2211 8.53738 36.8417 9.50752 36.5382L8.99528 37.3973C8.80848 36.9733 8.62895 36.4684 8.4567 35.8826C8.28445 35.2968 8.13638 34.6815 8.0125 34.0366C7.88861 33.3918 7.78836 32.7724 7.71173 32.1785C7.64675 31.5822 7.62354 31.0685 7.64211 30.6375L9.82662 30.2654C9.60424 30.4224 9.30953 30.5826 8.94249 30.7459C8.58462 30.895 8.21354 31.0104 7.82924 31.092C7.01407 31.265 6.38477 31.2521 5.94133 31.0533C5.49789 30.8546 5.2232 30.5041 5.11724 30.0019C4.96446 29.2777 5.17561 28.635 5.75069 28.0736C6.33741 27.5098 7.32949 27.0796 8.72693 26.783C10.4271 26.4222 11.9137 26.3752 13.1867 26.642C14.4688 26.8946 15.5088 27.4121 16.3065 28.1946C17.1018 28.9655 17.6264 29.9524 17.8802 31.1554C18.102 32.2066 18.1027 33.2192 17.8824 34.1934C17.6596 35.1559 17.2329 36.0457 16.6023 36.8629C15.9809 37.6659 15.1785 38.3609 14.1952 38.9479C13.2094 39.5232 12.0702 39.948 10.7775 40.2223ZM12.5452 35.1064C12.8596 35.0397 13.1265 34.8915 13.3457 34.662C13.5625 34.4207 13.7121 34.1205 13.7945 33.7614C13.8744 33.3905 13.8663 32.9773 13.7702 32.5218C13.6913 32.1481 13.5675 31.8205 13.3986 31.5391C13.2414 31.2552 13.052 31.0208 12.8305 30.8359C12.609 30.6511 12.3695 30.525 12.1119 30.4576C11.8636 30.3761 11.6113 30.3625 11.3551 30.4169C11.1921 30.4515 11.0705 30.5383 10.9903 30.6774C10.9218 30.8139 10.9033 31.0436 10.9349 31.3664C10.964 31.6775 11.0377 32.1133 11.156 32.6739C11.3482 33.585 11.5469 34.2383 11.7521 34.6341C11.9548 35.0182 12.2192 35.1756 12.5452 35.1064Z" fill="url(#paint2_linear_187_48)"/>
<path d="M25.201 36.7952C24.1529 37.0176 23.1956 37.0073 22.3291 36.7641C21.4718 36.5067 20.7464 36.0383 20.1529 35.3589C19.571 34.677 19.168 33.8046 18.9437 32.7418C18.7096 31.6322 18.7206 30.6171 18.9765 29.6964C19.2324 28.7757 19.7012 27.9989 20.3829 27.3661C21.0762 26.7309 21.9469 26.3021 22.995 26.0796C24.1129 25.8424 25.1275 25.865 26.0388 26.1475C26.9593 26.4159 27.7316 26.9048 28.3558 27.6143C28.98 28.3238 29.4054 29.2159 29.6321 30.2904C29.8638 31.3883 29.8305 32.3838 29.5322 33.2769C29.2456 34.1675 28.7345 34.9166 27.9988 35.5242C27.2632 36.1318 26.3306 36.5555 25.201 36.7952ZM24.6841 33.1343C25.1383 33.0379 25.4623 32.7861 25.6562 32.3789C25.8618 31.9691 25.903 31.4723 25.7798 30.8883C25.6565 30.3043 25.4182 29.8668 25.0648 29.5757C24.7231 29.2822 24.3251 29.1836 23.8709 29.28C23.4051 29.3788 23.0694 29.6331 22.8639 30.0428C22.6699 30.4501 22.6346 30.9457 22.7578 31.5297C22.881 32.1136 23.1135 32.5524 23.4553 32.846C23.8087 33.137 24.2183 33.2331 24.6841 33.1343Z" fill="url(#paint3_linear_187_48)"/>
<path d="M39.0183 25.4247C39.0337 24.9211 39.1521 24.4445 39.3736 23.9948C39.5951 23.5451 39.8978 23.1636 40.2819 22.8502C40.6751 22.5227 41.1338 22.3034 41.6578 22.1921C42.2867 22.0587 42.8764 22.0861 43.4271 22.2742C43.9778 22.4624 44.4632 22.8597 44.8831 23.4662C45.3031 24.0726 45.6301 24.9306 45.8642 26.0402C45.9775 26.5775 46.07 27.1313 46.1417 27.7019C46.211 28.2607 46.2612 28.787 46.2923 29.2807C46.321 29.7627 46.3279 30.17 46.3129 30.5027C46.2939 31.1046 46.1218 31.5865 45.7967 31.9484C45.4831 32.3078 45.0527 32.5456 44.5054 32.6617C43.9814 32.773 43.5371 32.7147 43.1728 32.487C42.8084 32.2592 42.5695 31.8767 42.4562 31.3395C42.4143 31.1409 42.3867 30.8661 42.3735 30.515C42.3578 30.1523 42.343 29.7649 42.3291 29.353C42.3152 28.941 42.2979 28.542 42.2773 28.1559C42.2542 27.7581 42.2155 27.4308 42.1613 27.1738C42.0825 26.8 41.9522 26.5287 41.7706 26.3598C41.5981 26.1768 41.3896 26.1112 41.1451 26.1631C40.819 26.2323 40.6013 26.4981 40.4921 26.9606C40.3828 27.4231 40.3887 28.0564 40.5097 28.8605C40.6029 29.4753 40.6696 30.0224 40.71 30.502C40.7619 30.979 40.763 31.3876 40.7131 31.7277C40.6528 32.192 40.5006 32.566 40.2563 32.8497C40.0211 33.1192 39.6648 33.3046 39.1874 33.406C38.6633 33.5172 38.2133 33.4602 37.8373 33.2349C37.4588 32.9979 37.1914 32.5666 37.035 31.9408C36.9494 31.5929 36.8561 31.1795 36.7551 30.7007C36.6657 30.2193 36.5717 29.745 36.4732 29.2779C36.3863 28.8082 36.2991 28.424 36.2118 28.1253C36.0973 27.6981 35.9434 27.4012 35.7501 27.2348C35.566 27.0542 35.3401 26.9924 35.0722 27.0492C34.7811 27.111 34.586 27.311 34.4871 27.6493C34.3881 27.9876 34.3674 28.4374 34.425 28.9987C34.47 29.2698 34.5344 29.6039 34.6182 30.001C34.702 30.3981 34.7858 30.7952 34.8696 31.1923C34.9625 31.5753 35.0315 31.9023 35.0766 32.1734C35.2307 33.0193 35.1829 33.6579 34.9332 34.0892C34.6836 34.5204 34.2676 34.7978 33.6853 34.9214C33.0332 35.0598 32.5117 34.9813 32.1209 34.686C31.7301 34.3907 31.4147 33.8475 31.1748 33.0564C31.0321 32.6108 30.9011 32.1627 30.7817 31.7121C30.6623 31.2615 30.5546 30.8085 30.4585 30.353C30.3624 29.8975 30.2776 29.4091 30.2041 28.8877C30.1281 28.3547 30.0642 27.8497 30.0122 27.3726C29.9402 26.5703 29.9898 25.8825 30.1609 25.3093C30.3411 24.7219 30.7515 24.3603 31.392 24.2244C31.9743 24.1008 32.4292 24.1812 32.7569 24.4655C33.0821 24.7382 33.3174 25.2191 33.4627 25.9082C33.512 26.1418 33.5401 26.3615 33.5471 26.5675L33.4208 26.2282C33.4935 25.4196 33.7592 24.747 34.2178 24.2104C34.674 23.6621 35.2339 23.3175 35.8977 23.1766C36.7478 22.9962 37.4683 23.124 38.0591 23.5599C38.6474 23.9842 39.0635 24.6585 39.3072 25.583L39.0183 25.4247Z" fill="url(#paint4_linear_187_48)"/>
<path d="M53.7822 30.8211C52.3498 31.1251 51.1679 31.1746 50.2365 30.9696C49.3051 30.7645 48.5708 30.3407 48.0338 29.6981C47.5083 29.0531 47.1397 28.2283 46.9277 27.2239C46.6592 25.9508 46.6932 24.8148 47.03 23.8159C47.376 22.8029 47.9584 21.9593 48.7773 21.2852C49.6079 20.6086 50.6113 20.1455 51.7875 19.8959C53.185 19.5994 54.2689 19.6622 55.0393 20.0844C55.8073 20.495 56.2861 21.1499 56.4758 22.0492C56.6262 22.7617 56.5588 23.4228 56.2737 24.0324C56.0003 24.6395 55.5438 25.1574 54.9042 25.586C54.2763 26.0121 53.5082 26.3216 52.5998 26.5143C52.1806 26.6033 51.7669 26.6606 51.3586 26.6862C50.9503 26.7119 50.5791 26.7113 50.245 26.6846L50.4572 25.6145C50.4814 25.9023 50.5231 26.1863 50.5823 26.4666C50.6882 26.9688 50.9439 27.2868 51.3492 27.4204C51.7662 27.5515 52.3008 27.5479 52.9529 27.4095C53.5818 27.276 54.1039 27.0981 54.5193 26.8757C54.9323 26.6417 55.2941 26.4246 55.6047 26.2244C55.9128 26.0126 56.2183 25.8745 56.5211 25.8103C56.7307 25.7658 56.9572 25.7726 57.2007 25.8308C57.4441 25.889 57.6649 26.0129 57.8631 26.2027C58.0613 26.3925 58.1999 26.6743 58.2787 27.048C58.3871 27.5619 58.2923 28.064 57.9943 28.5544C57.6962 29.0447 57.1934 29.487 56.4857 29.8813C55.7897 30.273 54.8885 30.5863 53.7822 30.8211ZM51.4791 24.9218C52.0381 24.8032 52.493 24.5663 52.8439 24.2111C53.1924 23.8443 53.3247 23.4624 53.2409 23.0652C53.1867 22.8083 53.0492 22.6178 52.8284 22.4939C52.6075 22.3699 52.3341 22.3425 52.008 22.4117C51.647 22.4883 51.3183 22.6313 51.0218 22.8407C50.7369 23.0475 50.5189 23.2829 50.3678 23.5469C50.2166 23.8108 50.1694 24.0771 50.226 24.3457C50.2803 24.6027 50.4153 24.7815 50.6312 24.8821C50.8587 24.9802 51.1414 24.9934 51.4791 24.9218Z" fill="url(#paint5_linear_187_48)"/>
<defs>
<linearGradient id="paint0_linear_187_48" x1="27.7471" y1="-2.67366" x2="50.2004" y2="61.0789" gradientUnits="userSpaceOnUse">
<stop stop-color="#D061FF"/>
<stop offset="0.2506" stop-color="#D25DFC"/>
<stop offset="0.5039" stop-color="#D951F1"/>
<stop offset="0.7576" stop-color="#D03DE0"/>
<stop offset="1" stop-color="#227CC9"/>
</linearGradient>
<linearGradient id="paint1_linear_187_48" x1="27.7471" y1="-2.67366" x2="50.2004" y2="61.0789" gradientUnits="userSpaceOnUse">
<stop stop-color="#D061FF"/>
<stop offset="0.2506" stop-color="#D25DFC"/>
<stop offset="0.5039" stop-color="#D951F1"/>
<stop offset="0.7576" stop-color="#D03DE0"/>
<stop offset="1" stop-color="#227CC9"/>
</linearGradient>
<linearGradient id="paint2_linear_187_48" x1="29.4698" y1="18.199" x2="34.4599" y2="41.7125" gradientUnits="userSpaceOnUse">
<stop offset="0.0576917" stop-color="#A70067"/>
<stop offset="0.197115" stop-color="#CE007F"/>
<stop offset="1" stop-color="#63003D"/>
</linearGradient>
<linearGradient id="paint3_linear_187_48" x1="29.4698" y1="18.199" x2="34.4599" y2="41.7125" gradientUnits="userSpaceOnUse">
<stop offset="0.0576917" stop-color="#A70067"/>
<stop offset="0.197115" stop-color="#CE007F"/>
<stop offset="1" stop-color="#63003D"/>
</linearGradient>
<linearGradient id="paint4_linear_187_48" x1="29.4698" y1="18.199" x2="34.4599" y2="41.7125" gradientUnits="userSpaceOnUse">
<stop offset="0.0576917" stop-color="#A70067"/>
<stop offset="0.197115" stop-color="#CE007F"/>
<stop offset="1" stop-color="#63003D"/>
</linearGradient>
<linearGradient id="paint5_linear_187_48" x1="29.4698" y1="18.199" x2="34.4599" y2="41.7125" gradientUnits="userSpaceOnUse">
<stop offset="0.0576917" stop-color="#A70067"/>
<stop offset="0.197115" stop-color="#CE007F"/>
<stop offset="1" stop-color="#63003D"/>
</linearGradient>
</defs>
</svg>
